<?xml version="1.0" standalone="no"?>
<!DOCTYPE svg PUBLIC "-//W3C//DTD SVG 20010904//EN"
 "http://www.w3.org/TR/2001/REC-SVG-20010904/DTD/svg10.dtd">
<svg version="1.0" xmlns="http://www.w3.org/2000/svg"
 width="600.000000pt" height="600.000000pt" viewBox="0 0 600.000000 600.000000"
 preserveAspectRatio="xMidYMid meet">
<metadata>
Created by potrace 1.11, written by Peter Selinger 2001-2013
</metadata>
<g transform="translate(0.000000,600.000000) scale(0.100000,-0.100000)"
fill="#000000" stroke="none">
<path d="M2910 5191 c-206 -223 -374 -455 -467 -647 -114 -236 -108 -387 22
-569 51 -70 53 -75 31 -75 -13 0 -45 -15 -72 -32 -132 -90 -122 -267 19 -339
24 -13 37 -26 37 -40 0 -56 64 -146 121 -170 35 -14 35 0 4 -274 -47 -413 -82
-647 -112 -740 -38 -118 -298 -456 -363 -470 -44 -10 -107 -60 -130 -104 -22
-44 -26 -113 -9 -158 13 -36 74 -98 110 -114 28 -11 29 -14 29 -80 l0 -68 -42
-12 c-108 -28 -212 -117 -242 -206 -11 -32 -16 -83 -16 -163 0 -101 3 -119 18
-133 17 -16 111 -17 1153 -17 1031 0 1137 1 1158 16 22 16 23 20 19 148 -3
123 -5 134 -33 185 -46 83 -126 144 -223 170 l-42 12 0 69 0 69 35 17 c107 50
147 193 80 284 -28 38 -80 75 -122 87 -33 9 -117 101 -232 253 -125 165 -140
209 -185 530 -31 214 -76 606 -76 653 0 29 5 37 30 47 36 15 99 85 105 117 3
13 7 34 10 47 3 15 22 34 50 50 93 55 126 173 75 263 -25 45 -78 87 -122 98
l-26 7 53 77 c74 109 98 177 98 276 1 96 -19 166 -78 290 -34 72 -111 202
-131 224 -2 2 -78 -72 -168 -165 l-164 -169 -44 43 -43 42 174 174 c123 123
171 178 165 187 -37 63 -337 409 -354 409 -5 0 -49 -44 -100 -99z"/>
</g>
</svg>
