<?xml version="1.0" encoding="UTF-8" standalone="no"?>
<svg
   xmlns:dc="http://purl.org/dc/elements/1.1/"
   xmlns:cc="http://creativecommons.org/ns#"
   xmlns:rdf="http://www.w3.org/1999/02/22-rdf-syntax-ns#"
   xmlns:svg="http://www.w3.org/2000/svg"
   xmlns="http://www.w3.org/2000/svg"
   version="1.1"
   id="Layer_1"
   x="0px"
   y="0px"
   viewBox="0 0 384 169.87026"
   xml:space="preserve"
   width="384"
   height="169.87025"><metadata
   id="metadata321"><rdf:RDF><cc:Work
       rdf:about=""><dc:format>image/svg+xml</dc:format><dc:type
         rdf:resource="http://purl.org/dc/dcmitype/StillImage" /><dc:title></dc:title></cc:Work></rdf:RDF></metadata><defs
   id="defs319" />
<style
   type="text/css"
   id="style10">
	.st0{fill:#131A23;}
	.st1{fill:#D52A28;}
	.st2{fill:#595A5A;}
	.st3{fill:#141B23;}
	.st4{fill:#FFFFFF;}
</style>






<g
   id="g314"
   transform="matrix(1.4081925,0,0,1.4081925,-136.59467,-816.48409)">
	<g
   id="g282">
		<path
   class="st4"
   d="m 223.54,609.92 -3.21,5.07 c -3.04,-2.45 -7.52,-3.89 -11.99,-3.89 -7.52,0 -10.47,4.31 -10.47,8.36 0,2.53 1.27,4.98 3.38,6.67 2.03,1.69 5.32,2.7 8.11,3.55 3.72,1.1 7.85,2.28 11.4,5.32 2.96,2.53 5.57,6.84 5.57,11.74 0,7.69 -5.91,15.71 -17.99,15.71 -5.91,0 -11.91,-1.86 -16.81,-5.74 l 3.55,-4.81 c 3.89,3.21 8.53,4.65 13.26,4.65 8.53,0 11.74,-5.24 11.74,-9.8 0,-2.62 -1.35,-5.57 -3.72,-7.52 -2.28,-1.94 -5.74,-2.96 -9.63,-4.14 -3.13,-0.93 -6.42,-1.86 -9.88,-4.73 -2.87,-2.36 -5.24,-6.42 -5.24,-10.73 0,-8.02 6.25,-14.44 16.72,-14.44 5.58,0 11.24,1.77 15.21,4.73 z"
   id="path270" />
		<path
   class="st4"
   d="m 243.85,605.69 v 24.32 h 24.66 v -24.32 h 6.25 v 56.25 h -6.25 v -26.01 h -24.66 v 26.01 h -6.25 v -56.25 z"
   id="path272" />
		<path
   class="st4"
   d="m 289.2,613.55 c 3.13,-5.15 9.04,-8.36 16.13,-8.36 7.09,0 13.01,3.21 16.13,8.36 3.04,4.98 3.04,10.3 3.04,20.27 0,9.97 0,15.29 -3.04,20.27 -3.12,5.15 -9.04,8.36 -16.13,8.36 -7.09,0 -13.01,-3.21 -16.13,-8.36 -3.04,-4.98 -3.04,-10.3 -3.04,-20.27 0,-9.97 0,-15.29 3.04,-20.27 z m 5.41,37.58 c 2.03,3.38 6,5.41 10.73,5.41 4.73,0 8.7,-2.03 10.73,-5.41 2.2,-3.63 2.2,-8.7 2.2,-17.31 0,-8.61 0,-13.68 -2.2,-17.31 -2.03,-3.38 -6,-5.41 -10.73,-5.41 -4.73,0 -8.7,2.03 -10.73,5.41 -2.2,3.63 -2.2,8.7 -2.2,17.31 0,8.61 0,13.68 2.2,17.31 z"
   id="path274" />
		<path
   class="st4"
   d="m 345.96,605.69 c 6.67,0 12.92,0 18.07,4.65 4.14,3.72 5.66,9.04 5.66,13.51 0,4.48 -1.52,9.8 -5.66,13.51 -5.15,4.65 -11.4,4.65 -18.07,4.65 h -3.8 v 19.93 h -6.25 v -56.25 z m -3.8,30.41 h 3.8 c 6.25,0 10.39,0 13.68,-2.96 2.28,-2.03 3.8,-5.24 3.8,-9.29 0,-4.05 -1.52,-7.26 -3.8,-9.29 -3.29,-2.96 -7.43,-2.96 -13.68,-2.96 h -3.8 z"
   id="path276" />
		<g
   id="g280">
			<path
   class="st4"
   d="m 124.56,608.99 c 3.46,2.7 5.41,7.01 5.41,11.82 0,5.15 -2.2,9.29 -6.17,11.74 4.9,2.53 7.85,7.26 7.85,13.43 0,4.81 -1.86,8.78 -4.48,11.4 -4.56,4.56 -10.47,4.56 -16.72,4.56 H 97.02 v -56.25 h 12.58 c 6,0 10.73,0 14.96,3.3 z m -21.29,2.62 v 18.41 h 6.33 c 5.74,0 9.63,0 12.08,-3.04 1.44,-1.77 2.03,-3.97 2.03,-6.17 0,-2.2 -0.59,-4.39 -2.03,-6.17 -2.45,-3.04 -6.33,-3.04 -12.08,-3.04 h -6.33 z m 0,24.32 v 20.1 h 7.18 c 5.83,0 9.63,0 12.42,-2.96 1.44,-1.52 2.53,-4.05 2.53,-7.09 0,-3.04 -1.1,-5.57 -2.53,-7.09 -2.79,-2.96 -6.59,-2.96 -12.42,-2.96 z"
   id="path278" />
		</g>
	</g>
	<g
   id="g310">
		<path
   class="st4"
   d="m 112.26,677.11 -1.72,2.1 c -1.11,-1.15 -2.83,-1.99 -4.96,-1.99 -1.87,0 -3.44,0.69 -4.39,1.91 -1.37,1.76 -1.37,3.97 -1.37,8.36 0,4.39 0,6.57 1.34,8.32 0.92,1.18 2.41,1.95 4.43,1.95 2.21,0 4.12,-0.92 5.27,-2.25 l 1.95,1.91 c -1.57,1.72 -4.2,3.02 -7.22,3.02 -3.05,0 -5.35,-1.26 -6.72,-3.06 C 97,694.94 97,692.26 97,687.49 c 0,-4.62 0,-7.48 1.91,-9.93 1.34,-1.72 3.63,-3.02 6.68,-3.02 2.74,0.01 5.14,1.08 6.67,2.57 z"
   id="path284" />
		<path
   class="st4"
   d="m 120.78,674.78 v 22.76 h 10.54 v 2.67 h -13.36 v -25.43 z"
   id="path286" />
		<path
   class="st4"
   d="m 145.06,674.78 h 2.29 l 8.67,25.43 h -2.98 l -2.02,-6.3 h -9.62 l -2.02,6.3 h -2.98 z m 1.14,3.97 -3.97,12.49 h 7.94 z"
   id="path288" />
		<path
   class="st4"
   d="m 175.29,676.68 -1.45,2.29 c -1.37,-1.11 -3.4,-1.76 -5.42,-1.76 -3.4,0 -4.73,1.95 -4.73,3.78 0,1.15 0.57,2.25 1.53,3.02 0.92,0.76 2.41,1.22 3.67,1.6 1.68,0.5 3.55,1.03 5.16,2.41 1.34,1.15 2.52,3.09 2.52,5.31 0,3.47 -2.67,7.1 -8.13,7.1 -2.67,0 -5.38,-0.84 -7.6,-2.6 l 1.6,-2.18 c 1.76,1.45 3.86,2.1 5.99,2.1 3.86,0 5.31,-2.37 5.31,-4.43 0,-1.18 -0.61,-2.52 -1.68,-3.4 -1.03,-0.88 -2.6,-1.34 -4.35,-1.87 -1.41,-0.42 -2.9,-0.84 -4.47,-2.14 -1.3,-1.07 -2.37,-2.9 -2.37,-4.85 0,-3.63 2.83,-6.53 7.56,-6.53 2.51,0.02 5.07,0.82 6.86,2.15 z"
   id="path290" />
		<path
   class="st4"
   d="m 196.02,676.68 -1.45,2.29 c -1.37,-1.11 -3.4,-1.76 -5.42,-1.76 -3.4,0 -4.73,1.95 -4.73,3.78 0,1.15 0.57,2.25 1.53,3.02 0.92,0.76 2.41,1.22 3.67,1.6 1.68,0.5 3.55,1.03 5.16,2.41 1.34,1.15 2.52,3.09 2.52,5.31 0,3.47 -2.67,7.1 -8.13,7.1 -2.67,0 -5.38,-0.84 -7.6,-2.6 l 1.6,-2.18 c 1.76,1.45 3.86,2.1 5.99,2.1 3.86,0 5.31,-2.37 5.31,-4.43 0,-1.18 -0.61,-2.52 -1.68,-3.4 -1.03,-0.88 -2.6,-1.34 -4.35,-1.87 -1.41,-0.42 -2.9,-0.84 -4.47,-2.14 -1.3,-1.07 -2.37,-2.9 -2.37,-4.85 0,-3.63 2.83,-6.53 7.56,-6.53 2.51,0.02 5.07,0.82 6.86,2.15 z"
   id="path292" />
		<path
   class="st4"
   d="m 205.07,700.21 h -2.83 v -25.43 h 2.83 z"
   id="path294" />
		<path
   class="st4"
   d="m 225.88,677.11 -1.72,2.1 c -1.11,-1.15 -2.83,-1.99 -4.96,-1.99 -1.87,0 -3.44,0.69 -4.39,1.91 -1.37,1.76 -1.37,3.97 -1.37,8.36 0,4.39 0,6.57 1.34,8.32 0.92,1.18 2.41,1.95 4.43,1.95 2.21,0 4.12,-0.92 5.27,-2.25 l 1.95,1.91 c -1.57,1.72 -4.2,3.02 -7.22,3.02 -3.05,0 -5.35,-1.26 -6.72,-3.06 -1.87,-2.44 -1.87,-5.12 -1.87,-9.89 0,-4.62 0,-7.48 1.91,-9.93 1.34,-1.72 3.63,-3.02 6.68,-3.02 2.74,0.01 5.14,1.08 6.67,2.57 z"
   id="path296" />
		<path
   class="st4"
   d="m 243.79,674.78 8.02,15.77 7.98,-15.77 h 2.52 v 25.43 h -2.83 v -19.17 l -6.45,12.87 h -2.44 l -6.45,-12.79 v 19.09 h -2.83 v -25.43 z"
   id="path298" />
		<path
   class="st4"
   d="m 269.22,678.33 c 1.41,-2.33 4.09,-3.78 7.29,-3.78 3.21,0 5.88,1.45 7.29,3.78 1.37,2.25 1.37,4.66 1.37,9.16 0,4.5 0,6.91 -1.37,9.16 -1.41,2.33 -4.09,3.78 -7.29,3.78 -3.21,0 -5.88,-1.45 -7.29,-3.78 -1.37,-2.25 -1.37,-4.66 -1.37,-9.16 0,-4.5 -0.01,-6.91 1.37,-9.16 z m 2.44,16.99 c 0.92,1.53 2.71,2.44 4.85,2.44 2.14,0 3.93,-0.92 4.85,-2.44 0.99,-1.64 0.99,-3.93 0.99,-7.83 0,-3.9 0,-6.19 -0.99,-7.83 -0.92,-1.53 -2.71,-2.44 -4.85,-2.44 -2.14,0 -3.93,0.92 -4.85,2.44 -0.99,1.64 -0.99,3.93 -0.99,7.83 0,3.9 0,6.19 0.99,7.83 z"
   id="path300" />
		<path
   class="st4"
   d="m 305.94,674.78 v 2.67 h -7.18 v 22.76 h -2.83 v -22.76 h -7.18 v -2.67 z"
   id="path302" />
		<path
   class="st4"
   d="m 311.44,678.33 c 1.41,-2.33 4.09,-3.78 7.29,-3.78 3.21,0 5.88,1.45 7.29,3.78 1.37,2.25 1.37,4.66 1.37,9.16 0,4.5 0,6.91 -1.37,9.16 -1.41,2.33 -4.09,3.78 -7.29,3.78 -3.21,0 -5.88,-1.45 -7.29,-3.78 -1.37,-2.25 -1.37,-4.66 -1.37,-9.16 0,-4.5 0,-6.91 1.37,-9.16 z m 2.45,16.99 c 0.92,1.53 2.71,2.44 4.85,2.44 2.14,0 3.93,-0.92 4.85,-2.44 0.99,-1.64 0.99,-3.93 0.99,-7.83 0,-3.9 0,-6.19 -0.99,-7.83 -0.92,-1.53 -2.71,-2.44 -4.85,-2.44 -2.14,0 -3.93,0.92 -4.85,2.44 -0.99,1.64 -0.99,3.93 -0.99,7.83 0,3.9 -0.01,6.19 0.99,7.83 z"
   id="path304" />
		<path
   class="st4"
   d="m 338.02,674.78 c 3.02,0 5.8,0 8.06,2.1 1.41,1.34 2.33,3.32 2.33,5.73 0,3.32 -1.76,5.84 -4.12,6.95 l 4.51,10.65 h -3.05 l -4.12,-9.89 c -0.84,0.11 -1.68,0.11 -3.59,0.11 h -2.25 v 9.81 h -2.83 v -25.47 h 5.06 z m -2.25,12.98 h 2.25 c 2.86,0 4.62,0 6.07,-1.34 0.99,-0.92 1.49,-2.37 1.49,-3.82 0,-1.45 -0.5,-2.9 -1.49,-3.82 -1.45,-1.34 -3.21,-1.34 -6.07,-1.34 h -2.25 z"
   id="path306" />
		<path
   class="st4"
   d="m 367.74,676.68 -1.45,2.29 c -1.37,-1.11 -3.4,-1.76 -5.42,-1.76 -3.4,0 -4.73,1.95 -4.73,3.78 0,1.15 0.57,2.25 1.53,3.02 0.92,0.76 2.41,1.22 3.67,1.6 1.68,0.5 3.55,1.03 5.16,2.41 1.34,1.15 2.52,3.09 2.52,5.31 0,3.47 -2.67,7.1 -8.13,7.1 -2.67,0 -5.38,-0.84 -7.6,-2.6 l 1.6,-2.18 c 1.76,1.45 3.86,2.1 5.99,2.1 3.86,0 5.31,-2.37 5.31,-4.43 0,-1.18 -0.61,-2.52 -1.68,-3.4 -1.03,-0.88 -2.6,-1.34 -4.35,-1.87 -1.41,-0.42 -2.9,-0.84 -4.47,-2.14 -1.3,-1.07 -2.37,-2.9 -2.37,-4.85 0,-3.63 2.83,-6.53 7.56,-6.53 2.51,0.02 5.07,0.82 6.86,2.15 z"
   id="path308" />
	</g>
	<path
   class="st4"
   d="m 177.37,652.44 v -2.59 c 1.6,-0.53 2.75,-1.89 2.75,-3.5 0,-1.81 -1.45,-3.32 -3.38,-3.66 -1.08,-1.19 -5.03,-5.66 -5.95,-8.07 -0.85,-2.22 -2.1,-13.44 -2.61,-18.59 1.61,-0.52 2.76,-1.89 2.76,-3.5 v -0.25 c 1.6,-0.52 2.76,-1.89 2.76,-3.5 0,-1.71 -1.3,-3.15 -3.07,-3.59 h -0.26 c 1.7,-1.9 2.96,-4.11 2.96,-6.46 0,-2.76 -1.75,-6.2 -3.89,-9.38 v 0 l -1.25,-1.76 0.01,-0.01 c -3.18,-4.31 -6.66,-7.77 -6.66,-7.77 0,0 -11.8,11.73 -11.8,18.92 0,2.35 1.26,4.56 2.96,6.46 h -0.46 c -1.76,0.44 -3.07,1.88 -3.07,3.59 0,1.61 1.15,2.97 2.76,3.5 v 0.25 c 0,1.61 1.15,2.98 2.76,3.5 -0.51,5.15 -1.76,16.38 -2.61,18.59 -0.92,2.41 -4.87,6.88 -5.95,8.07 -1.92,0.34 -3.38,1.85 -3.38,3.66 0,1.61 1.15,2.97 2.75,3.5 v 2.59 c -3.12,0.49 -5.51,2.91 -5.51,5.83 v 2.76 c 0,0.56 0.51,1.02 1.15,1.02 h 20.25 0.07 20.25 c 0.63,0 1.15,-0.46 1.15,-1.02 v -2.76 c 0.01,-2.92 -2.37,-5.34 -5.49,-5.83 z m -25.36,-54.07 c 0,-5.8 9.52,-15.27 9.52,-15.27 0,0 2.65,2.64 5.15,5.98 l -4.81,4.81 1.53,1.53 4.55,-4.55 c 1.71,2.55 3.09,5.29 3.09,7.49 0,2.56 -1.85,4.9 -3.92,6.72 h -11.2 c -2.05,-1.81 -3.91,-4.15 -3.91,-6.71 z m 1.36,12.11 c -1.04,0 -1.89,-0.76 -1.89,-1.69 0,-0.93 0.85,-1.68 1.89,-1.68 h 8.03 0.07 8.03 c 1.04,0 1.89,0.75 1.89,1.68 0,0.93 -0.85,1.69 -1.89,1.69 h -2.17 -5.86 -0.07 -5.86 z m 0.89,24.81 c 1.03,-2.67 2.35,-15.28 2.71,-18.97 l 9.62,6.38 c 0.57,4.95 1.36,10.86 2.03,12.59 0.81,2.11 3.45,5.37 5.14,7.34 h -2.41 c -0.07,0 -0.13,0.01 -0.19,0.02 h -19.44 c -0.06,-0.01 -0.13,-0.02 -0.19,-0.02 h -2.41 c 1.69,-1.96 4.33,-5.22 5.14,-7.34 z m -9.21,11.07 c 0,-0.93 0.85,-1.69 1.89,-1.69 h 4.58 c 0.08,0 0.16,-0.01 0.23,-0.02 h 19.36 c 0.08,0.01 0.15,0.02 0.23,0.02 h 4.58 c 1.04,0 1.89,0.75 1.89,1.69 0,0.93 -0.85,1.68 -1.89,1.68 h -14.46 -0.07 -14.46 c -1.03,0 -1.88,-0.75 -1.88,-1.68 z m 35.53,13.65 h -19.1 -0.07 -19.1 v -1.74 c 0,-2.14 1.96,-3.88 4.36,-3.88 h 14.74 0.07 14.74 c 2.41,0 4.36,1.74 4.36,3.88 z"
   id="path312" />
</g>
</svg>
